<svg width="20" height="18" viewBox="0 0 20 18" fill="none" xmlns="http://www.w3.org/2000/svg">
<path d="M0.75 3.75H3.75M3.75 3.75C3.75 2.818 3.75 2.352 3.902 1.985C4.00251 1.74218 4.1499 1.52155 4.33572 1.33572C4.52155 1.1499 4.74218 1.00251 4.985 0.902C5.352 0.75 5.818 0.75 6.75 0.75C7.682 0.75 8.148 0.75 8.515 0.902C8.75782 1.00251 8.97845 1.1499 9.16428 1.33572C9.3501 1.52155 9.49749 1.74218 9.598 1.985C9.75 2.352 9.75 2.818 9.75 3.75C9.75 4.682 9.75 5.148 9.598 5.515C9.49749 5.75782 9.3501 5.97845 9.16428 6.16428C8.97845 6.3501 8.75782 6.49749 8.515 6.598C8.148 6.75 7.682 6.75 6.75 6.75C5.818 6.75 5.352 6.75 4.985 6.598C4.74218 6.49749 4.52155 6.3501 4.33572 6.16428C4.1499 5.97845 4.00251 5.75782 3.902 5.515C3.75 5.148 3.75 4.682 3.75 3.75ZM0.75 13.75H6.75M15.75 13.75H18.75M15.75 13.75C15.75 12.818 15.75 12.352 15.598 11.985C15.4975 11.7422 15.3501 11.5216 15.1643 11.3357C14.9784 11.1499 14.7578 11.0025 14.515 10.902C14.148 10.75 13.682 10.75 12.75 10.75C11.818 10.75 11.352 10.75 10.985 10.902C10.7422 11.0025 10.5216 11.1499 10.3357 11.3357C10.1499 11.5216 10.0025 11.7422 9.902 11.985C9.75 12.352 9.75 12.818 9.75 13.75C9.75 14.682 9.75 15.148 9.902 15.515C10.0025 15.7578 10.1499 15.9784 10.3357 16.1643C10.5216 16.3501 10.7422 16.4975 10.985 16.598C11.352 16.75 11.818 16.75 12.75 16.75C13.682 16.75 14.148 16.75 14.515 16.598C14.7578 16.4975 14.9784 16.3501 15.1643 16.1643C15.3501 15.9784 15.4975 15.7578 15.598 15.515C15.75 15.148 15.75 14.682 15.75 13.75ZM12.75 3.75H18.75" stroke="black" stroke-width="1.5" stroke-linecap="round" stroke-linejoin="round"/>
</svg>
